<svg xmlns="http://www.w3.org/2000/svg" width="782" height="742" fill="none" viewBox="0 0 782 742"><path stroke="#333037" stroke-linecap="round" stroke-linejoin="round" stroke-width="4" d="M209.104 596.619L241.145 625.51"/><path stroke="#333037" stroke-linecap="round" stroke-linejoin="round" stroke-width="4" d="M99.0938 497.378L157.988 550.531"/><path stroke="#333037" stroke-linecap="round" stroke-linejoin="round" stroke-width="4" d="M198.891 503.809L420.798 703.85"/><path stroke="#333037" stroke-linecap="round" stroke-linejoin="round" stroke-width="4" d="M85.8018 401.791L130.756 442.374"/><path stroke="#A41FE2" stroke-linecap="round" stroke-linejoin="round" stroke-width="4" d="M358.391 563.977L553.607 740"/><path stroke="#A41FE2" stroke-linecap="round" stroke-linejoin="round" stroke-width="4" d="M63.8115 298.36L271.941 486.075"/><path stroke="#333037" stroke-linecap="round" stroke-linejoin="round" stroke-width="4" d="M226.987 361.938L571.601 672.621"/><path stroke="#333037" stroke-linecap="round" stroke-linejoin="round" stroke-width="4" d="M84.5063 233.466L157.449 299.237"/><path stroke="#333037" stroke-linecap="round" stroke-linejoin="round" stroke-width="4" d="M511.516 534.843L594.346 609.53"/><path stroke="#333037" stroke-linecap="round" stroke-linejoin="round" stroke-width="4" d="M2 75.42L424.419 456.308"/><path stroke="#A41FE2" stroke-linecap="round" stroke-linejoin="round" stroke-width="4" d="M340.776 297.336L753.469 669.406"/><path stroke="#A41FE2" stroke-linecap="round" stroke-linejoin="round" stroke-width="4" d="M158.529 132.958L254.381 219.434"/><path stroke="#333037" stroke-linecap="round" stroke-linejoin="round" stroke-width="4" d="M420.905 285.936L687.442 526.268"/><path stroke="#333037" stroke-linecap="round" stroke-linejoin="round" stroke-width="4" d="M148.751 40.537L345.75 218.168"/><path stroke="#A41FE2" stroke-linecap="round" stroke-linejoin="round" stroke-width="4" d="M640.761 400.573L780 526.122"/><path stroke="#A41FE2" stroke-linecap="round" stroke-linejoin="round" stroke-width="4" d="M269.131 65.4813L539.613 309.37"/><path stroke="#333037" stroke-linecap="round" stroke-linejoin="round" stroke-width="4" d="M505.897 195.318L693.981 364.959"/><path stroke="#333037" stroke-linecap="round" stroke-linejoin="round" stroke-width="4" d="M291.446 2L432.144 128.816"/><path stroke="#A41FE2" stroke-linecap="round" stroke-linejoin="round" stroke-width="4" d="M673.07 262.502L746.229 328.468"/><path stroke="#A41FE2" stroke-linecap="round" stroke-linejoin="round" stroke-width="4" d="M403.993 19.88L589.483 187.085"/><path stroke="#333037" stroke-linecap="round" stroke-linejoin="round" stroke-width="4" d="M635.035 144.601L679.989 185.136"/><path stroke="#333037" stroke-linecap="round" stroke-linejoin="round" stroke-width="4" d="M556.093 73.4225L587.107 101.339"/></svg>